<svg version="1.1" xmlns="http://www.w3.org/2000/svg" style="display: block;" viewBox="0 0 2048 2048" width="1024" height="1024" preserveAspectRatio="none">
<path transform="translate(0,0)" fill="rgb(0,0,0)" d="M 0 0 L 2048 0 L 2048 2048 L 0 2048 L 0 0 z M 190.71 2020.08 C 184.154 2020.07 174.782 2020.69 168.756 2019.15 L 165.047 2019.31 L 166.017 2016.71 L 165.183 2016.17 C 161.722 2019.89 162.057 2020.48 157.016 2021.48 L 153.803 2020.63 L 155.763 2017.26 L 156.572 2019.43 L 157.901 2018.98 C 158.691 2015.81 159.356 2010.97 157.454 2008.25 C 154.775 2004.41 153.46 2007.31 148.578 2006.13 C 148.378 2004.56 148.16 2003.12 147.898 2001.55 L 146.52 2001.54 L 145.311 2005.24 L 142.027 2006.79 C 139.863 2004.13 140.463 2004.16 137.612 2003.05 C 134.631 2006.81 134.766 2006.88 130.386 2006.25 C 127.234 2005.28 128.721 2005.16 125.775 2006.55 C 123.97 2010.24 125.607 2010.52 124.403 2014.17 C 121.857 2012.32 120.289 2009.31 118.53 2006.6 C 116.199 2008.62 116.057 2010.65 115.25 2013.68 L 113.883 2014.55 L 112.423 2011.2 L 110.818 2010.86 C 109.529 2016.08 102.892 2020.32 98.2054 2023.39 C 82.5004 2024.26 65.1596 2023.86 49.3125 2023.89 C 44.4626 2023.9 42.8677 2022.32 33.979 2022.63 C 29.2284 2019.64 30.3636 2012.98 30.2501 2007.57 L 28.9815 2007.27 C 27.6565 2011.96 27.7107 2028.63 33.4551 2027.9 C 42.8931 2026.68 98.056 2028.99 102.195 2026.38 C 103.486 2023.86 103.366 2024.01 103.505 2021.15 C 107.02 2020.93 106.64 2020.52 109.588 2021.78 C 110.131 2026 109.998 2027.61 115.042 2028.35 C 121.252 2024.39 121.606 2026.27 128.666 2026.83 C 135.03 2027.34 141.612 2028.6 147.999 2027.86 C 153.364 2027.3 161.864 2023.86 166.757 2024.43 L 167.323 2027.74 C 173.415 2028.57 182.481 2026.93 185.934 2028.08 L 183.347 2028.76 L 183.083 2030.16 C 186.527 2032.24 189.569 2034.3 193.328 2035.74 C 200.961 2032.07 203.937 2026.63 212.554 2026.5 C 219.352 2026.41 228.608 2025.38 229.706 2016.95 L 228.887 2016.53 C 221.333 2021.01 214.883 2026.79 205.918 2023.64 C 200.915 2021.87 200.348 2022.96 198.391 2027.56 C 196.067 2028.64 194.48 2029.17 192.072 2030.01 L 190.523 2029.41 C 190.453 2025.93 190.487 2023.55 190.71 2020.08 z M 249.51 2016.39 L 249.627 2018.92 C 246.421 2020.88 241.658 2020.82 238.415 2018.92 C 236.496 2020.76 236.249 2022.04 235.221 2024.53 L 235.639 2026.9 C 242.867 2030.9 250.868 2023.11 262.529 2028.8 C 264.089 2027.12 263.981 2027.24 264.651 2025.04 C 264.53 2027.3 264.548 2029.05 264.862 2031.29 C 269.587 2034.41 273.613 2034.69 279.166 2034.45 L 280.941 2033.36 C 277.318 2031.25 275.035 2033.95 269.39 2030.54 L 269.439 2029.27 C 271.745 2029.61 270.939 2029.37 272.982 2030.5 L 274.336 2029.4 L 272.73 2028.3 L 273.339 2028.02 C 270.262 2026.23 268.898 2025.77 267.561 2022.88 C 269.981 2021.08 270.72 2021.59 274.2 2021.19 C 267.765 2018.86 269.568 2018.04 265.35 2016.34 C 262.223 2018.53 260.543 2020.3 256.803 2020.24 C 252.764 2018.96 252.586 2018.22 249.853 2014.67 L 249.51 2016.39 z M 71.9771 2020 C 88.0479 2023.45 86.5677 2005.59 82.1352 2000.62 L 81.0927 2006.3 C 77.2673 2006.63 73.3168 2006.6 69.9818 2008.34 C 67.0475 2012.94 69.0549 2015.69 71.9771 2020 z"/>
<path transform="translate(0,0)" fill="rgb(93,228,240)" d="M 1036.21 830.371 C 1089.62 823.92 1132.53 879.157 1116.75 929.486 C 1114.44 936.851 1111.5 942.473 1107.88 949.274 C 1115.68 949.919 1125.02 949.868 1132.96 950.023 C 1112.05 1004.98 1081.77 1069.23 1057.89 1123.93 L 1038.03 1123.89 L 1013.34 1123.79 C 990.347 1067.38 962.579 1006 937.905 949.913 L 976.593 949.974 C 969.928 940.371 965.701 929.29 964.277 917.688 C 958.471 871.085 990.618 835.359 1036.21 830.371 z"/>
<path transform="translate(0,0)" fill="rgb(0,2,3)" d="M 1039.09 836.216 C 1043.65 836.709 1042.99 838.392 1044.22 839.198 C 1048.58 842.062 1063.3 841.535 1069.79 843.703 C 1079.44 846.925 1081.46 848.612 1089.14 853.731 C 1076.91 850.303 1068.39 846.635 1055.13 845.925 C 1038.66 845.043 1040.14 849.391 1039.92 863.777 C 1064.44 863.736 1090.97 869.488 1107.84 888.781 C 1110.26 891.555 1112.19 897.722 1113.43 901.308 C 1094.27 878.794 1069.97 868.558 1040.43 869.532 C 1041.67 880.055 1042.18 884.39 1047.24 894.006 C 1074.14 897.838 1095.98 906.737 1107.74 933.081 C 1102.96 947.238 1093.3 957.069 1080.98 965.009 C 1060.96 977.912 1043.36 979.59 1020.57 974.483 C 993.379 966.457 982.816 950.421 972.671 925.527 C 982.307 930.354 985.498 929.897 996.101 929.972 C 986.137 915.946 975.746 898.887 977.564 880.981 C 977.894 877.733 980.498 871.627 981.746 868.417 C 981.615 892.091 985.925 909.9 1002.21 927.961 C 1010.29 925.79 1013.76 924.146 1020.72 919.985 C 1008.34 899.554 1001.31 876.917 1005.3 852.208 C 1005.95 848.167 1007.81 845.683 1011.15 843.532 C 1012.39 846.433 1010.36 858.008 1010.26 862.49 C 1009.84 880.312 1014.12 900.322 1024.23 915.086 L 1025.1 916.346 C 1032.55 910.838 1037.32 905.587 1041.29 897.202 C 1033.34 877.151 1030.84 856.585 1039.09 836.216 z"/>
<path transform="translate(0,0)" fill="rgb(93,228,240)" d="M 1047.74 899.836 C 1057.92 901.268 1062.99 901.843 1072.44 905.871 C 1058.06 932.731 1038.71 952.334 1007.12 955.979 C 990.524 957.217 987.489 947.678 979.468 935.091 C 1013.19 936.254 1027.69 926.187 1047.74 899.836 z"/>
<path transform="translate(0,0)" fill="rgb(93,228,240)" d="M 1077.32 909.425 C 1083.05 911.986 1093.7 916.088 1091.28 924.169 C 1086.91 938.743 1072.62 953.696 1060.29 962.129 C 1047.39 970.95 1037.15 973.495 1022.02 970.682 C 1014.33 968.421 1010.54 966.11 1003.64 962.207 C 1041.74 958.727 1057.78 939.021 1077.32 909.425 z"/>
<path transform="translate(0,0)" fill="rgb(93,228,240)" d="M 1096.54 925.575 C 1097.87 926.759 1102.05 931.367 1102.42 932.841 C 1106.31 948.68 1075.59 965.106 1065.36 969.487 C 1062.66 970.193 1060.82 970.964 1058.1 970.446 C 1079.92 954.182 1084.11 950.28 1096.54 925.575 z"/>
<path transform="translate(0,0)" fill="rgb(0,2,3)" d="M 994.572 970.698 C 1025 985.898 1047.66 991.973 1079.38 974.376 C 1070.18 992.348 1061.19 1014.18 1052.98 1032.88 C 1047.58 1044.33 1042.21 1057.36 1037.1 1069.05 C 1025.83 1045.5 1016.16 1020.63 1005.26 996.867 C 1001.54 988.771 997.19 979.156 994.572 970.698 z"/>
<path transform="translate(0,0)" fill="rgb(93,228,240)" d="M 1177.18 949.991 L 1220.2 950.229 C 1225.04 959.485 1229.87 969.901 1234.03 979.467 C 1254.92 1027.51 1279.11 1075.3 1298.57 1123.84 L 1251.94 1123.8 L 1238.09 1088.93 L 1221.5 1088.94 C 1200.9 1089.01 1180.29 1088.88 1159.69 1088.55 C 1154.56 1100.12 1149.62 1111.78 1144.88 1123.51 C 1129.73 1123.82 1114.57 1123.85 1099.42 1123.6 C 1123.6 1067.29 1150.8 1005.07 1177.18 949.991 z"/>
<path transform="translate(0,0)" fill="rgb(0,2,3)" d="M 1198.43 995.741 C 1204.38 1004.09 1219.1 1044.93 1224.21 1057.01 L 1199.72 1056.9 L 1173.51 1056.89 C 1179.55 1039.5 1191.13 1013.62 1198.43 995.741 z"/>
<path transform="translate(0,0)" fill="rgb(93,228,240)" d="M 467.537 950.42 C 474.851 950.135 482.429 950.082 489.756 950.144 C 528.713 950.472 568.169 949.232 607.08 950.569 L 607.022 985.082 C 574.912 985.047 542.803 985.213 510.695 985.58 L 510.813 1019.95 L 596.065 1020.06 L 596.235 1052.94 L 518.75 1053 C 515.841 1052.94 513.677 1052.49 511.366 1054.07 C 510.439 1061.75 510.941 1080.43 510.989 1088.96 L 609.917 1089.18 L 610.001 1123.48 C 563.828 1124.58 513.313 1123.98 467.045 1123.5 L 466.997 1005.31 C 466.982 994.268 466.195 958.73 467.537 950.42 z"/>
<path transform="translate(0,0)" fill="rgb(93,228,240)" d="M 1472.08 950.512 C 1508.72 950.256 1547.69 949.576 1584.22 950.718 C 1584.05 962.064 1584.1 973.593 1584.06 984.956 L 1487.7 985.574 L 1487.83 1019.95 L 1572.95 1019.96 L 1573.05 1052.95 L 1487.55 1053.01 L 1487.63 1069.85 L 1487.75 1088.91 L 1586.37 1089.02 L 1586.73 1123.52 C 1541.63 1124.95 1489.87 1123.96 1444.46 1123.73 L 1444.02 950.69 L 1472.08 950.512 z"/>
<path transform="translate(0,0)" fill="rgb(93,228,240)" d="M 785.4 950.19 C 828.309 949.546 882.629 949.097 924.85 950.749 L 924.978 985.029 L 828.894 985.328 L 828.895 1019.92 L 914.646 1020.06 C 914.879 1030.85 914.754 1042.21 914.79 1053.04 L 837.75 1053.03 C 834.073 1052.91 833.805 1052.79 830.071 1053.59 C 828.886 1056.59 829.555 1083.37 829.604 1088.81 L 928.285 1089.08 L 928.227 1123.42 C 880.881 1123.95 833.531 1124.03 786.184 1123.64 L 785.4 950.19 z"/>
<path transform="translate(0,0)" fill="rgb(93,228,240)" d="M 1267.08 950.134 C 1319.87 949.88 1372.66 949.959 1425.44 950.37 C 1425.34 961.962 1425.38 973.555 1425.56 985.147 L 1368.31 985.257 C 1368.67 1012.33 1368.83 1039.4 1368.81 1066.47 L 1368.75 1123.37 C 1354.04 1123.62 1339.33 1123.61 1324.62 1123.35 C 1324.07 1077.33 1323.95 1031.31 1324.25 985.293 L 1267.22 985.452 C 1266.92 973.979 1267.1 961.675 1267.08 950.134 z"/>
<path transform="translate(0,0)" fill="rgb(93,228,240)" d="M 635.216 950.289 C 649.481 949.907 665.402 950.304 679.793 950.353 L 679.976 1088.37 C 708.645 1088.42 737.314 1088.61 765.981 1088.97 L 766.025 1123.72 L 635.496 1123.82 C 634.787 1104.57 635.266 1081.72 635.214 1062.22 C 635.021 1024.91 635.022 987.597 635.216 950.289 z"/>
<path transform="translate(0,0)" fill="rgb(0,2,3)" fill-opacity="0.968627" d="M 190.71 2020.08 C 190.487 2023.55 190.453 2025.93 190.523 2029.41 L 192.072 2030.01 C 194.48 2029.17 196.067 2028.64 198.391 2027.56 C 200.348 2022.96 200.915 2021.87 205.918 2023.64 C 214.883 2026.79 221.333 2021.01 228.887 2016.53 L 229.706 2016.95 C 228.608 2025.38 219.352 2026.41 212.554 2026.5 C 203.937 2026.63 200.961 2032.07 193.328 2035.74 C 189.569 2034.3 186.527 2032.24 183.083 2030.16 L 183.347 2028.76 L 185.934 2028.08 C 182.481 2026.93 173.415 2028.57 167.323 2027.74 L 166.757 2024.43 C 161.864 2023.86 153.364 2027.3 147.999 2027.86 C 141.612 2028.6 135.03 2027.34 128.666 2026.83 C 121.606 2026.27 121.252 2024.39 115.042 2028.35 C 109.998 2027.61 110.131 2026 109.588 2021.78 C 106.64 2020.52 107.02 2020.93 103.505 2021.15 C 103.366 2024.01 103.486 2023.86 102.195 2026.38 C 98.056 2028.99 42.8931 2026.68 33.4551 2027.9 C 27.7107 2028.63 27.6565 2011.96 28.9815 2007.27 L 30.2501 2007.57 C 30.3636 2012.98 29.2284 2019.64 33.979 2022.63 C 42.8677 2022.32 44.4626 2023.9 49.3125 2023.89 C 65.1596 2023.86 82.5004 2024.26 98.2054 2023.39 C 102.892 2020.32 109.529 2016.08 110.818 2010.86 L 112.423 2011.2 L 113.883 2014.55 L 115.25 2013.68 C 116.057 2010.65 116.199 2008.62 118.53 2006.6 C 120.289 2009.31 121.857 2012.32 124.403 2014.17 C 125.607 2010.52 123.97 2010.24 125.775 2006.55 C 128.721 2005.16 127.234 2005.28 130.386 2006.25 C 130.414 2010.7 130.057 2015.9 131.461 2019.98 L 132.726 2019.69 C 134.565 2015.91 133.884 2009.55 135.426 2008.77 C 136.032 2012.77 136.222 2015.51 137.709 2019.24 C 139.827 2020.48 140.863 2020.47 143.272 2019.19 L 145.175 2016.12 C 145.494 2017.37 145.962 2018.26 146.476 2019.45 L 147.426 2019 C 147.899 2015.65 148.419 2012.31 148.988 2008.98 C 149.14 2013.27 149.159 2014.74 148.645 2018.98 L 149.785 2020.94 C 151.843 2020.95 151.798 2020.92 153.803 2020.63 L 157.016 2021.48 C 162.057 2020.48 161.722 2019.89 165.183 2016.17 L 166.017 2016.71 L 165.047 2019.31 L 168.756 2019.15 C 174.782 2020.69 184.154 2020.07 190.71 2020.08 z"/>
<path transform="translate(0,0)" fill="rgb(253,253,254)" d="M 204.43 1988.08 C 207.422 1988.01 216.483 1987.58 218.848 1988.5 C 239.557 1996.5 232.414 2012.36 216.379 2019.34 C 211.674 2019.99 207.352 2021.61 204.162 2017.81 C 204.47 2013.64 210.267 2006.09 212.923 2002.01 C 208.219 2001.83 203.393 2001.49 198.682 2001.21 C 200.343 1995.89 201.944 1992.97 204.43 1988.08 z"/>
<path transform="translate(0,0)" fill="rgb(253,253,254)" d="M 182.345 1987.96 L 196.894 1988.06 L 190.351 2006.61 C 194.228 2006.6 198.483 2006.49 202.321 2006.62 C 200.634 2011.36 196.679 2024.89 192.601 2027.13 C 190.361 2024.98 191.083 2024.17 190.71 2020.08 C 184.154 2020.07 174.782 2020.69 168.756 2019.15 C 172.348 2009.83 178.021 1997.1 182.345 1987.96 z"/>
<path transform="translate(0,0)" fill="rgb(253,253,254)" d="M 324.605 1999.52 C 332.979 2000.42 327.166 2002.8 330.474 2006.43 C 332.875 2002.7 333.638 1999.91 338.305 2000.1 C 339.492 2001.63 339.489 2001.65 340.916 2003.04 C 343.056 2001.54 343.999 2000.95 346.306 1999.71 C 349.806 2000.47 348.698 1999.51 350.328 2001.93 L 348.16 2005.31 C 353.589 2008.47 350.704 2004.11 355.163 2007.13 C 355.414 2010.5 355.091 2013.88 357.864 2015.98 C 359.875 2013.28 359.264 2010.73 359.245 2006.96 C 361.16 2004.91 359.953 2005.7 363.594 2005.52 L 364.973 2006.93 C 365.334 2010.92 366.025 2014.86 365.072 2018.7 C 361.341 2020.95 361.131 2020.14 356.015 2020.23 C 354.644 2020.45 353.942 2020.01 352.393 2019.59 C 350.018 2016.95 350.254 2015.03 349.84 2011.4 L 349.684 2009.94 L 348.607 2009.18 C 346.409 2011.6 347.283 2014.4 346.669 2018.94 L 345.108 2020.09 L 342.639 2019.59 L 341.716 2018.07 C 341.844 2015.06 342.372 2012.39 340.962 2009.88 L 338.935 2009.79 C 335.861 2014.16 339.508 2016.62 336.239 2020.38 L 334.186 2019.61 C 331.909 2016.83 332.096 2015.74 331.71 2012.17 L 331.594 2010.98 L 330.3 2010.43 C 329.464 2013.79 329.689 2015.13 329.826 2018.53 C 328.011 2020.78 329.13 2020.01 326.322 2020.86 C 322.682 2017.2 324.659 2004.99 324.605 1999.52 z"/>
<path transform="translate(0,0)" fill="rgb(253,253,254)" d="M 249.853 2014.67 C 250.58 2010.4 250.474 2010.57 252.658 2006.87 C 255.732 2004.92 254.099 2005.43 257.742 2005.27 C 260.775 2006.66 265.661 2010.29 266.995 2009.72 C 272.513 2007.36 273.777 2002.56 279.887 2004.48 C 283.339 2009.25 282.325 2015.47 282.03 2021.02 C 281.77 2025.93 277.089 2027.02 273.339 2028.02 C 270.262 2026.23 268.898 2025.77 267.561 2022.88 C 269.981 2021.08 270.72 2021.59 274.2 2021.19 C 267.765 2018.86 269.568 2018.04 265.35 2016.34 C 262.223 2018.53 260.543 2020.3 256.803 2020.24 C 252.764 2018.96 252.586 2018.22 249.853 2014.67 z"/>
<path transform="translate(0,0)" fill="rgb(0,2,3)" fill-opacity="0.984314" d="M 249.853 2014.67 C 252.586 2018.22 252.764 2018.96 256.803 2020.24 C 260.543 2020.3 262.223 2018.53 265.35 2016.34 C 269.568 2018.04 267.765 2018.86 274.2 2021.19 C 270.72 2021.59 269.981 2021.08 267.561 2022.88 C 268.898 2025.77 270.262 2026.23 273.339 2028.02 L 272.73 2028.3 L 274.336 2029.4 L 272.982 2030.5 C 270.939 2029.37 271.745 2029.61 269.439 2029.27 L 269.39 2030.54 C 275.035 2033.95 277.318 2031.25 280.941 2033.36 L 279.166 2034.45 C 273.613 2034.69 269.587 2034.41 264.862 2031.29 C 264.548 2029.05 264.53 2027.3 264.651 2025.04 C 263.981 2027.24 264.089 2027.12 262.529 2028.8 C 250.868 2023.11 242.867 2030.9 235.639 2026.9 L 235.221 2024.53 C 236.249 2022.04 236.496 2020.76 238.415 2018.92 C 241.658 2020.82 246.421 2020.88 249.627 2018.92 L 249.51 2016.39 L 249.853 2014.67 z"/>
<path transform="translate(0,0)" fill="rgb(253,253,254)" d="M 306.036 2001.91 C 317.936 2001.52 327.315 2003.75 320.972 2018.2 C 316.018 2020.86 311.656 2020.15 305.946 2020.1 L 306.036 2001.91 z"/>
<path transform="translate(0,0)" fill="rgb(253,253,254)" fill-opacity="0.980392" d="M 82.1352 2000.62 C 86.5677 2005.59 88.0479 2023.45 71.9771 2020 C 69.0549 2015.69 67.0475 2012.94 69.9818 2008.34 C 73.3168 2006.6 77.2673 2006.63 81.0927 2006.3 L 82.1352 2000.62 z M 78.4934 2017.24 C 80.0928 2016.51 81.169 2014.97 81.3022 2013.22 C 81.4354 2011.46 80.6045 2009.78 79.1335 2008.81 C 77.6626 2007.85 75.7845 2007.77 74.2319 2008.59 C 71.9289 2009.81 71.0141 2012.64 72.1664 2014.98 C 73.3187 2017.32 76.121 2018.32 78.4934 2017.24 z"/>
<path transform="translate(0,0)" fill="rgb(0,2,3)" fill-opacity="0.988235" d="M 74.2319 2008.59 C 75.7845 2007.77 77.6626 2007.85 79.1335 2008.81 C 80.6045 2009.78 81.4354 2011.46 81.3022 2013.22 C 81.169 2014.97 80.0928 2016.51 78.4934 2017.24 C 76.121 2018.32 73.3187 2017.32 72.1664 2014.98 C 71.0141 2012.64 71.9289 2009.81 74.2319 2008.59 z"/>
<path transform="translate(0,0)" fill="rgb(253,253,254)" d="M 393.803 2005.21 C 396.642 2004.37 399.711 2005.17 401.787 2007.27 C 403.864 2009.38 404.612 2012.46 403.732 2015.29 C 402.853 2018.12 400.49 2020.23 397.584 2020.79 C 393.379 2021.59 389.28 2018.96 388.27 2014.8 C 387.261 2010.64 389.695 2006.42 393.803 2005.21 z"/>
<path transform="translate(0,0)" fill="rgb(253,253,254)" d="M 288.834 2005.39 C 292.95 2003.85 297.542 2005.9 299.133 2010 C 300.723 2014.1 298.719 2018.71 294.639 2020.35 C 291.958 2021.43 288.906 2020.98 286.648 2019.18 C 284.39 2017.37 283.274 2014.5 283.726 2011.65 C 284.179 2008.79 286.13 2006.4 288.834 2005.39 z"/>
<path transform="translate(0,0)" fill="rgb(253,253,254)" d="M 405.225 2004.49 C 412.789 2006.1 422.531 2004.52 421.105 2016.87 C 418.801 2019.84 420.228 2019.09 416.964 2019.68 C 413.916 2017.37 414.891 2018.16 414.002 2013.15 C 414.489 2011.77 414.325 2012.63 414.056 2010.55 L 412.641 2010 L 411.227 2011.58 C 411.117 2014.35 410.944 2016.32 410.65 2019.03 L 408.958 2020.09 L 406.554 2019.34 C 404.579 2015.94 405.293 2009.07 405.225 2004.49 z"/>
<path transform="translate(0,0)" fill="rgb(253,253,254)" fill-opacity="0.662745" d="M 130.386 2006.25 C 134.766 2006.88 134.631 2006.81 137.612 2003.05 C 140.463 2004.16 139.863 2004.13 142.027 2006.79 L 142.102 2007.9 C 139.758 2010.67 139.879 2010.96 139.633 2014.37 C 140.754 2017.43 140.655 2017.22 143.272 2019.19 C 140.863 2020.47 139.827 2020.48 137.709 2019.24 C 136.222 2015.51 136.032 2012.77 135.426 2008.77 C 133.884 2009.55 134.565 2015.91 132.726 2019.69 L 131.461 2019.98 C 130.057 2015.9 130.414 2010.7 130.386 2006.25 z"/>
<path transform="translate(0,0)" fill="rgb(253,253,254)" d="M 238.415 2018.92 C 239.082 2014.79 239.157 2006.91 239.33 2002.47 L 241.17 2001.54 C 244.857 2009.3 242.36 2013.45 249.51 2016.39 L 249.627 2018.92 C 246.421 2020.88 241.658 2020.82 238.415 2018.92 z"/>
<path transform="translate(0,0)" fill="rgb(253,253,254)" fill-opacity="0.984314" d="M 145.311 2005.24 L 146.52 2001.54 L 147.898 2001.55 C 148.16 2003.12 148.378 2004.56 148.578 2006.13 C 153.46 2007.31 154.775 2004.41 157.454 2008.25 C 159.356 2010.97 158.691 2015.81 157.901 2018.98 L 156.572 2019.43 L 155.763 2017.26 C 155.896 2013.87 156.283 2012.25 154.761 2009.22 C 151.415 2007.72 153.237 2008.1 148.988 2008.98 C 148.419 2012.31 147.899 2015.65 147.426 2019 L 146.476 2019.45 C 145.962 2018.26 145.494 2017.37 145.175 2016.12 C 145.783 2011.77 145.544 2009.69 145.311 2005.24 z"/>
<path transform="translate(0,0)" fill="rgb(253,253,254)" d="M 384.963 2004.61 L 386.565 2006.33 C 387.849 2012.22 389.338 2018.21 383.3 2021.37 C 380.123 2017.41 379.861 2007.93 384.963 2004.61 z"/>
<path transform="translate(0,0)" fill="rgb(0,2,3)" fill-opacity="0.984314" d="M 148.988 2008.98 C 153.237 2008.1 151.415 2007.72 154.761 2009.22 C 156.283 2012.25 155.896 2013.87 155.763 2017.26 L 153.803 2020.63 C 151.798 2020.92 151.843 2020.95 149.785 2020.94 L 148.645 2018.98 C 149.159 2014.74 149.14 2013.27 148.988 2008.98 z"/>
<path transform="translate(0,0)" fill="rgb(0,2,3)" fill-opacity="0.984314" d="M 142.027 2006.79 L 145.311 2005.24 C 145.544 2009.69 145.783 2011.77 145.175 2016.12 L 143.272 2019.19 C 140.655 2017.22 140.754 2017.43 139.633 2014.37 C 139.879 2010.96 139.758 2010.67 142.102 2007.9 L 142.027 2006.79 z"/>
</svg>